<svg width="18" height="20" viewBox="0 0 18 20" fill="none" xmlns="http://www.w3.org/2000/svg">
<g clip-path="url(#clip0_1306_4397)">
<path d="M0.732894 16.57C0.852894 18.14 2.15289 19.36 3.73289 19.36H14.1429C15.7129 19.36 17.0229 18.14 17.1329 16.57L17.5629 10.62H0.312894L0.732894 16.57Z" fill="black"/>
<path d="M17.0629 5.36H14.3529C14.0929 4.41 13.7129 3.53 13.2329 2.77C12.1329 1.01 10.5729 0 8.93289 0C7.30289 0 5.73289 1.01 4.64289 2.77C4.16289 3.53 3.78289 4.41 3.51289 5.36H0.812894C0.342894 5.36 -0.0371062 5.76 0.00289382 6.23L0.242894 9.62H17.6329L17.8729 6.23C17.9029 5.76 17.5329 5.36 17.0629 5.36ZM5.40289 5.36C5.60289 4.76 5.86289 4.2 6.16289 3.72C6.92289 2.5 7.93289 1.8 8.93289 1.8C9.93289 1.8 10.9429 2.5 11.7129 3.72C12.0129 4.2 12.2729 4.76 12.4729 5.36H5.40289Z" fill="black"/>
</g>
<defs>
<clipPath id="clip0_1306_4397">
<rect width="17.87" height="19.36" fill="white"/>
</clipPath>
</defs>
</svg>
