<svg width="97" height="21" viewBox="0 0 97 21" fill="none" xmlns="http://www.w3.org/2000/svg">
<path d="M35.8553 7.79574C34.843 6.65901 33.2873 5.9854 31.7169 5.9854C30.6022 5.9854 29.575 6.37441 28.6205 7.15244V6.43504H25.2021V16.509L21.782 15.2729L21.7093 0.177124H16.3258L0 19.5251L3.66116 20.5035L8.99519 14.1379L25.2037 19.9983V20.0202H28.6221V13.2285C28.6221 11.6573 28.8269 10.6249 29.2381 10.1012C29.7368 9.47305 30.4849 9.15814 31.4675 9.15814C32.2156 9.15814 32.8167 9.39727 33.2427 9.8907C33.682 10.3993 33.9033 11.4164 33.9033 12.9422V20.0185H37.3217V12.7165C37.3234 10.3841 36.8973 8.91732 35.8553 7.79574ZM18.4264 14.057L11.2328 11.4569L13.0907 9.21371L18.4478 2.72508L18.4264 11.211V14.057Z" fill="#464646"/>
<path d="M49.0237 6.43273V7.30002C47.8941 6.41758 46.6903 5.98309 45.4435 5.98309C43.6682 5.98309 42.1126 6.59609 40.7783 7.8086C39.2226 9.22993 38.4448 11.0251 38.4448 13.2093C38.4448 15.0938 39.0459 16.7256 40.2498 18.0863C41.6436 19.6727 43.3743 20.4659 45.4435 20.4659C46.6903 20.4659 47.8941 20.0314 49.0237 19.149V20.0162H52.4421V6.43105H49.0237V6.43273ZM48.2888 15.9038C47.6002 16.8317 46.6754 17.2948 45.5013 17.2948C44.5038 17.2948 43.6682 16.9361 42.9779 16.2322C42.2596 15.4996 41.9078 14.4825 41.9062 13.2093C41.9062 12.1164 42.1704 11.2188 42.6988 10.5317C43.404 9.61895 44.3123 9.15583 45.4418 9.15583C46.4987 9.15583 47.3492 9.49938 48.0097 10.2033C48.7149 10.951 49.0666 11.953 49.0666 13.1959C49.0666 14.3023 48.8024 15.1999 48.2888 15.9038Z" fill="#464646"/>
<path d="M65.6447 7.79512C64.6324 6.65839 63.0768 5.98477 61.5063 5.98477C60.3916 5.98477 59.3644 6.37379 58.4116 7.15182V6.43441H54.9932V20.0196H58.4116V13.2279C58.4116 11.6566 58.618 10.6243 59.0275 10.1006C59.5263 9.47243 60.2743 9.15751 61.2569 9.15751C62.005 9.15751 62.6061 9.39665 63.0322 9.89007C63.4715 10.3987 63.6927 11.4158 63.6927 12.9416V20.0179H67.1112V12.7159C67.1112 10.3818 66.6867 8.91669 65.6447 7.79512Z" fill="#464646"/>
<path d="M79.0462 6.43273V7.30002C77.9166 6.41758 76.7127 5.98309 75.4659 5.98309C73.6907 5.98309 72.135 6.59609 70.8007 7.8086C69.2451 9.22993 68.4673 11.0251 68.4673 13.2093C68.4673 15.0938 69.0684 16.7256 70.2723 18.0863C71.666 19.6727 73.3967 20.4659 75.4659 20.4659C76.7127 20.4659 77.9166 20.0314 79.0462 19.149V20.0162H82.4646V6.43105L79.0462 6.43273ZM78.3129 15.9038C77.6227 16.8317 76.6995 17.2948 75.5254 17.2948C74.5279 17.2948 73.6907 16.9361 73.002 16.2322C72.2837 15.4996 71.9303 14.4825 71.9303 13.2093C71.9303 12.1164 72.1945 11.2188 72.7229 10.5317C73.4264 9.61895 74.3364 9.15583 75.4659 9.15583C76.5228 9.15583 77.3733 9.49938 78.0339 10.2033C78.7374 10.951 79.0908 11.953 79.0908 13.1959C79.0908 14.3023 78.8265 15.1999 78.3129 15.9038Z" fill="#464646"/>
<path d="M91.8873 8.76175L90.1004 8.06456C88.9626 7.6267 88.2723 7.08613 88.0081 6.43945H84.5484C84.7829 8.48894 86.1569 10.0164 88.7034 11.0116L90.4208 11.6802C91.2861 12.0221 91.9285 12.3488 92.348 12.6772C92.8781 13.1049 93.144 13.6455 93.144 14.2854C93.144 15.055 92.8781 15.7388 92.3331 16.3214C91.7601 16.9344 91.0351 17.2325 90.1681 17.2325C88.6043 17.2325 87.5854 16.2928 87.123 14.3983C87.0817 14.2416 87.0255 14.0143 86.9562 13.7011L83.6616 14.5835C83.802 15.1527 83.8846 15.5097 83.9126 15.6512C84.233 16.9614 84.8903 18.0442 85.8679 18.9115C87.0404 19.9505 88.4507 20.4642 90.0988 20.4642C91.7882 20.4642 93.2265 19.9522 94.4271 18.9115C95.8655 17.6872 96.5772 16.1345 96.5772 14.2551C96.5772 12.9584 96.1726 11.8486 95.3618 10.9375C94.5972 10.0854 93.4379 9.35959 91.8873 8.76175Z" fill="#464646"/>
<path d="M85.0141 3.3947H90.4968V3.39638C90.51 3.39638 90.5199 3.39302 90.5331 3.39302C91.3142 3.39302 91.9996 3.67762 92.5726 4.24683C92.8104 4.48933 93.1589 4.97265 93.618 5.69679H93.6163H93.618C93.618 5.69847 93.6196 5.69847 93.6196 5.70016L93.6279 5.69511L96.7028 4.87161C96.5872 4.54995 96.46 4.25861 96.3262 3.9858L96.3279 3.98412C96.3246 3.97738 96.3213 3.97233 96.318 3.96559C96.313 3.9538 96.3064 3.93865 96.3015 3.92686L96.2982 3.92854C96.1644 3.65404 96.024 3.39638 95.882 3.16904C95.8787 3.16399 95.8754 3.15893 95.8705 3.1522C95.7532 2.96527 95.6343 2.8036 95.5171 2.6453C95.4708 2.58299 95.4279 2.52405 95.3849 2.46847C95.2314 2.27649 95.0861 2.10977 94.9457 1.96494C93.7666 0.776009 92.3084 0.174805 90.5744 0.174805C90.548 0.174805 90.5232 0.179857 90.4968 0.181541V0.174805H25.2036V3.3947H85.0141Z" fill="#464646"/>
</svg>
